<?xml version="1.0" standalone="no"?>
<!DOCTYPE svg PUBLIC "-//W3C//DTD SVG 20010904//EN"
 "http://www.w3.org/TR/2001/REC-SVG-20010904/DTD/svg10.dtd">
<svg version="1.0" xmlns="http://www.w3.org/2000/svg"
 width="600.000000pt" height="600.000000pt" viewBox="0 0 600.000000 600.000000"
 preserveAspectRatio="xMidYMid meet">
<metadata>
Created by potrace 1.11, written by Peter Selinger 2001-2013
</metadata>
<g transform="translate(0.000000,600.000000) scale(0.100000,-0.100000)"
fill="#000000" stroke="none">
<path d="M2 3818 l3 -2103 29 -60 c68 -143 89 -182 133 -249 156 -234 430
-492 703 -661 140 -86 464 -248 520 -259 3 -1 10 -4 15 -7 8 -5 199 -71 215
-74 12 -3 97 -28 120 -36 14 -5 37 -11 52 -13 15 -3 31 -7 36 -10 5 -3 19 -7
33 -10 13 -3 35 -7 49 -10 14 -3 36 -8 50 -11 50 -11 70 -15 88 -19 9 -2 53
-9 97 -16 44 -7 87 -13 95 -15 9 -2 43 -6 75 -10 33 -4 69 -9 79 -11 97 -18
332 -29 601 -29 372 0 457 5 740 46 77 11 158 22 180 25 22 3 47 8 55 10 8 3
26 8 40 10 130 24 470 122 578 168 34 14 68 26 77 26 8 0 15 5 15 10 0 6 6 10
14 10 22 0 295 135 378 187 21 13 40 23 43 23 3 0 11 5 18 10 7 6 44 31 82 57
261 174 519 438 656 670 27 46 49 86 49 88 0 3 14 33 31 67 17 35 33 72 37 83
4 11 8 964 9 2118 l3 2097 -543 0 -543 0 -34 -41 c-48 -59 -51 -62 -140 -124
-93 -66 -152 -93 -281 -129 -260 -73 -605 -70 -874 8 -173 50 -311 116 -453
217 -116 83 -132 82 -264 -13 -184 -131 -459 -231 -708 -257 -147 -16 -383 -5
-528 23 -116 24 -299 94 -334 129 -7 8 -31 25 -53 39 -43 27 -83 63 -128 116
l-27 32 -545 0 -545 0 2 -2102z"/>
</g>
</svg>
